HIERARCHY
ROOT Hips
{
 OFFSET 0.000000 0.000000 0.000000
 CHANNELS 6 Xposition Yposition Zposition Yrotation Xrotation Zrotation
 JOINT Chest
 {
  OFFSET 0.000000 9.857222 0.000240
  CHANNELS 3 Yrotation Xrotation Zrotation
  JOINT Chest2
  {
   OFFSET 0.000000 10.876940 -0.000436
   CHANNELS 3 Yrotation Xrotation Zrotation
   JOINT Chest3
   {
    OFFSET 0.000000 9.827798 0.000000
    CHANNELS 3 Yrotation Xrotation Zrotation
    JOINT Chest4
    {
     OFFSET 0.000000 9.827798 0.000000
     CHANNELS 3 Yrotation Xrotation Zrotation
     JOINT Neck
     {
      OFFSET 0.000000 13.831992 0.000000
      CHANNELS 3 Yrotation Xrotation Zrotation
      JOINT Head
      {
       OFFSET 0.000000 9.147643 -0.001036
       CHANNELS 3 Yrotation Xrotation Zrotation
       End Site
       {
        OFFSET 0.000000 17.515799 -0.000541
       }
      }
     }
     JOINT RightCollar
     {
      OFFSET -3.001579 7.717577 0.000000
      CHANNELS 3 Yrotation Xrotation Zrotation
      JOINT RightShoulder
      {
       OFFSET -14.002642 0.000000 0.000000
       CHANNELS 3 Yrotation Xrotation Zrotation
       JOINT RightElbow
       {
        OFFSET -30.053852 0.000000 0.000000
        CHANNELS 3 Yrotation Xrotation Zrotation
        JOINT RightWrist
        {
         OFFSET -24.564923 0.000000 -0.000000
         CHANNELS 3 Yrotation Xrotation Zrotation
         End Site
         {
          OFFSET -18.334355 0.000000 0.000000
         }
        }
       }
      }
     }
     JOINT LeftCollar
     {
      OFFSET 3.001579 7.717577 0.000000
      CHANNELS 3 Yrotation Xrotation Zrotation
      JOINT LeftShoulder
      {
       OFFSET 14.002642 0.000000 0.000000
       CHANNELS 3 Yrotation Xrotation Zrotation
       JOINT LeftElbow
       {
        OFFSET 30.053852 0.000000 0.000000
        CHANNELS 3 Yrotation Xrotation Zrotation
        JOINT LeftWrist
        {
         OFFSET 24.564923 0.000000 -0.000000
         CHANNELS 3 Yrotation Xrotation Zrotation
         End Site
         {
          OFFSET 18.334355 0.000000 0.000000
         }
        }
       }
      }
     }
    }
   }
  }
 }
 JOINT RightHip
 {
  OFFSET -8.003235 -0.001175 -0.000120
  CHANNELS 3 Yrotation Xrotation Zrotation
  JOINT RightKnee
  {
   OFFSET 0.000000 -41.759727 0.000113
   CHANNELS 3 Yrotation Xrotation Zrotation
   JOINT RightAnkle
   {
    OFFSET 0.000000 -40.728748 0.000159
    CHANNELS 3 Yrotation Xrotation Zrotation
    JOINT RightToe
    {
     OFFSET 0.000000 -6.515296 14.732841
     CHANNELS 3 Yrotation Xrotation Zrotation
     End Site
     {
      OFFSET 0.000000 -1.502839 6.412115
     }
    }
   }
  }
 }
 JOINT LeftHip
 {
  OFFSET 8.003235 -0.001175 -0.000120
  CHANNELS 3 Yrotation Xrotation Zrotation
  JOINT LeftKnee
  {
   OFFSET 0.000000 -41.759727 0.000113
   CHANNELS 3 Yrotation Xrotation Zrotation
   JOINT LeftAnkle
   {
    OFFSET 0.000000 -40.728748 0.000159
    CHANNELS 3 Yrotation Xrotation Zrotation
    JOINT LeftToe
    {
     OFFSET 0.000000 -6.515296 14.732841
     CHANNELS 3 Yrotation Xrotation Zrotation
     End Site
     {
      OFFSET 0.000000 -1.502839 6.412115
     }
    }
   }
  }
 }
}
MOTION
Frames: 14
Frame Time: 0.016667
0.000000 88.822259 0.000000 0.000000 -5.826342 0.000000 0.000000 11.116423 0.000000 0.000000 -5.290081 0.000000 0.000000 0.000000 0.000000 0.000000 0.000000 0.000000 0.000000 12.665069 0.000000 0.000000 0.575450 0.000000 0.000000 0.000000 0.000000 0.000000 0.000000 0.000000 2.337306 0.000000 0.000000 -2.337306 0.000000 0.000000 0.000000 0.000000 0.000000 0.000000 0.000000 0.000000 -2.337306 0.000000 0.000000 2.337306 0.000000 0.000000 0.000000 8.578828 0.000000 0.000000 1.905768 0.000000 0.000000 -4.658254 0.000000 0.000000 0.000000 0.000000 0.000000 8.578828 0.000000 0.000000 1.905768 0.000000 0.000000 -4.658254 0.000000 0.000000 0.000000 0.000000
6.671659 90.484912 6.817263 -15.190736 0.577415 0.070339 -5.453319 1.988902 -0.364933 -2.285497 0.888943 -0.130719 -2.285497 0.888943 -0.130719 -1.713898 0.667207 -0.094714 -7.473404 25.905942 2.460653 -13.903301 12.498580 6.068995 5.463000 7.554196 10.239523 52.711289 -0.314082 76.080127 18.434231 3.076811 -8.992829 1.285348 -2.077822 -1.348045 -24.966075 8.212050 -16.017667 -13.155692 17.586842 -49.331272 -38.513282 -5.000895 -12.457719 -2.218858 10.794180 15.748613 -18.036921 -3.603228 0.506472 -4.405950 7.591050 -4.735738 -3.096098 -8.545570 4.803286 -0.325455 0.105046 -0.152322 -18.892398 -0.429199 5.601339 6.766812 11.138503 -4.358953 -6.394637 -9.924396 -2.543735 0.329006 0.025086 0.129002
6.678329 90.481741 6.788663 -15.199986 0.663054 0.067611 -5.456992 1.952834 -0.359422 -2.282477 0.874090 -0.128336 -2.282477 0.874090 -0.128336 -1.711641 0.656057 -0.092987 -7.476265 25.913521 2.451609 -13.905916 12.511707 6.052734 5.457157 7.561849 10.219022 52.662292 -0.293576 76.049917 18.421204 3.103153 -9.002315 1.301947 -2.066833 -1.400049 -24.958356 8.202049 -15.993956 -13.114428 17.609930 -49.383302 -38.652938 -4.951580 -12.438162 -2.243628 10.782547 15.722195 -18.003299 -3.703181 0.566811 -4.402923 7.590456 -4.767342 -3.092243 -8.536205 4.800255 -0.308363 0.110814 -0.149193 -18.966263 -0.516406 5.617791 6.839663 11.126258 -4.334703 -6.346848 -9.910326 -2.548422 0.317656 0.030924 0.120264
6.694374 90.479830 6.756236 -15.212714 0.745241 0.078689 -5.461846 1.915637 -0.365203 -2.280869 0.861202 -0.125149 -2.280869 0.861202 -0.125149 -1.710444 0.646379 -0.090647 -7.479448 25.919000 2.438539 -13.908341 12.520459 6.029602 5.458346 7.570667 10.196535 52.615761 -0.274939 76.005526 18.397154 3.140564 -8.988261 1.323137 -2.071252 -1.455595 -24.951355 8.197950 -15.983355 -13.102063 17.618816 -49.423053 -38.744416 -4.877701 -12.465601 -2.278045 10.725828 15.710110 -17.983081 -3.808311 0.588900 -4.394049 7.593427 -4.776594 -3.182745 -8.517373 4.806025 -0.289908 0.117317 -0.141973 -19.084365 -0.615967 5.623542 6.922567 11.129384 -4.314400 -6.313999 -9.885744 -2.533850 0.278813 0.023393 0.098805
6.707241 90.479151 6.725215 -15.211996 0.806258 0.078482 -5.468669 1.894387 -0.362051 -2.281090 0.849526 -0.123305 -2.281090 0.849526 -0.123305 -1.710615 0.637615 -0.089307 -7.480283 25.925294 2.428691 -13.907245 12.530887 6.011611 5.459399 7.591255 10.179244 52.564862 -0.268444 75.953610 18.373209 3.159427 -8.964250 1.369269 -2.083837 -1.493380 -24.959980 8.212523 -15.982061 -13.110472 17.615416 -49.448751 -38.768171 -4.895571 -12.507710 -2.340070 10.725091 15.681558 -17.966880 -3.889458 0.602929 -4.413981 7.596724 -4.764730 -3.147508 -8.504775 4.805058 -0.302118 0.119580 -0.151645 -19.151998 -0.700188 5.639099 6.931701 11.139693 -4.316040 -6.222536 -9.868705 -2.535625 0.281831 0.019885 0.099161
6.716404 90.479716 6.691509 -15.208157 0.869705 0.072742 -5.469483 1.876936 -0.352031 -2.284439 0.839454 -0.122441 -2.284439 0.839454 -0.122441 -1.713131 0.630058 -0.088692 -7.475665 25.929867 2.424901 -13.897872 12.538338 6.003399 5.461714 7.597367 10.161651 52.524896 -0.246119 75.894871 18.353687 3.157234 -8.934402 1.428014 -2.096926 -1.507519 -24.975091 8.229866 -15.981975 -13.144703 17.591911 -49.466478 -38.720256 -4.944312 -12.579121 -2.402609 10.742713 15.649751 -17.917094 -3.967775 0.635713 -4.474731 7.592524 -4.779190 -3.251730 -8.473806 4.816774 -0.288036 0.117488 -0.146357 -19.122814 -0.779501 5.679966 6.859861 11.129993 -4.323289 -6.205250 -9.845430 -2.538312 0.273465 0.016888 0.096368
6.718243 90.481147 6.657290 -15.197423 0.938103 0.070408 -5.470466 1.855350 -0.345316 -2.288805 0.826349 -0.122974 -2.288805 0.826349 -0.122974 -1.716408 0.620233 -0.089135 -7.466512 25.936945 2.425798 -13.881293 12.550543 6.002287 5.464947 7.623313 10.145490 52.491678 -0.238802 75.837349 18.322546 3.173052 -8.906126 1.470595 -2.100893 -1.510514 -24.991164 8.258851 -15.986714 -13.216038 17.567146 -49.495888 -38.613283 -4.993161 -12.667825 -2.457672 10.780525 15.654970 -17.902613 -4.047528 0.687022 -4.511366 7.580356 -4.809319 -3.157332 -8.454353 4.817519 -0.285387 0.113895 -0.153014 -19.081839 -0.865304 5.712272 6.792301 11.118161 -4.330264 -6.162859 -9.821564 -2.541917 0.274136 0.016568 0.096459
6.723054 90.482539 6.621192 -15.184075 1.030283 0.074458 -5.473949 1.821780 -0.342622 -2.294746 0.810429 -0.122045 -2.294746 0.810429 -0.122045 -1.720869 0.608290 -0.088490 -7.454435 25.942361 2.427678 -13.859818 12.559488 6.002467 5.468595 7.657007 10.117867 52.472175 -0.256476 75.791912 18.265732 3.211031 -8.877542 1.516871 -2.091561 -1.513651 -25.003935 8.282052 -15.995156 -13.286005 17.536609 -49.522128 -38.483838 -4.991261 -12.757097 -2.538129 10.798680 15.681486 -17.938356 -4.149131 0.717259 -4.525511 7.562439 -4.810548 -3.137538 -8.426815 4.821421 -0.282677 0.113377 -0.156919 -19.074662 -0.973333 5.751840 6.797242 11.111382 -4.317390 -6.213689 -9.795670 -2.544565 0.261225 0.011039 0.088881
6.733603 90.483548 6.583639 -15.155882 1.144736 0.081803 -5.491877 1.775198 -0.347070 -2.299766 0.790028 -0.120468 -2.299766 0.790028 -0.120468 -1.724641 0.592984 -0.087378 -7.444277 25.949556 2.429614 -13.841670 12.571938 6.002977 5.474086 7.709248 10.092634 52.483343 -0.274709 75.741734 18.223667 3.212084 -8.857158 1.586670 -2.090518 -1.505413 -25.020805 8.327830 -16.005442 -13.362600 17.501016 -49.538982 -38.336968 -4.979865 -12.815900 -2.640555 10.823410 15.713765 -17.982885 -4.272601 0.742836 -4.547299 7.542048 -4.799994 -3.088212 -8.401882 4.827067 -0.297896 0.115970 -0.168727 -19.127600 -1.110685 5.775391 6.859346 11.108812 -4.283584 -6.256829 -9.768515 -2.549032 0.258498 0.009664 0.084190
6.745193 90.483840 6.541268 -15.129160 1.280307 0.078546 -5.508979 1.724816 -0.342621 -2.303201 0.768146 -0.118603 -2.303201 0.768146 -0.118603 -1.727226 0.576566 -0.086058 -7.437429 25.955011 2.433290 -13.829927 12.581760 6.007474 5.473276 7.754771 10.068510 52.527438 -0.281677 75.709631 18.209961 3.175817 -8.870413 1.667703 -2.105481 -1.462285 -25.041478 8.375944 -16.008533 -13.429909 17.460046 -49.544928 -38.205005 -4.978433 -12.834982 -2.728610 10.839661 15.732674 -18.008366 -4.417095 0.786182 -4.580322 7.524938 -4.794965 -3.055776 -8.373964 4.834233 -0.307501 0.117707 -0.176276 -19.215153 -1.261085 5.834035 6.949963 11.105571 -4.265984 -6.288562 -9.740757 -2.558765 0.265682 0.009475 0.082507
6.754944 90.484032 6.501142 -15.119344 1.411108 0.072744 -5.509967 1.687255 -0.338334 -2.305344 0.748315 -0.117262 -2.305344 0.748315 -0.117262 -1.728840 0.561688 -0.085124 -7.430273 25.955041 2.438857 -13.818392 12.581768 6.015833 5.469540 7.791621 10.048624 52.584097 -0.272439 75.678257 18.224336 3.125792 -8.899463 1.760722 -2.155552 -1.401526 -25.062987 8.424205 -16.005241 -13.501007 17.419578 -49.555359 -38.079371 -5.023179 -12.858727 -2.799377 10.814794 15.755233 -17.997390 -4.558405 0.839253 -4.594984 7.511511 -4.802432 -3.055427 -8.342553 4.848201 -0.320147 0.116255 -0.184176 -19.173077 -1.397280 5.888820 6.924456 11.070981 -4.257869 -6.311024 -9.709761 -2.562625 0.277130 0.017333 0.082340
6.760260 90.485863 6.460759 -15.119750 1.533103 0.063202 -5.501946 1.658492 -0.327389 -2.306957 0.735140 -0.114363 -2.306957 0.735140 -0.114363 -1.730057 0.551796 -0.082998 -7.427136 25.947769 2.443940 -13.814378 12.568652 6.024955 5.466337 7.822817 10.022207 52.605629 -0.277425 75.644178 18.252120 3.115961 -8.928862 1.864798 -2.224226 -1.342764 -25.081795 8.463065 -16.002021 -13.554707 17.377371 -49.570143 -37.967716 -5.111287 -12.862191 -2.839460 10.825766 15.759637 -17.967827 -4.689808 0.900103 -4.624394 7.494108 -4.817894 -3.053864 -8.299063 4.857178 -0.323052 0.106128 -0.186697 -19.089396 -1.513357 5.951264 6.886313 11.016831 -4.253042 -6.357362 -9.668179 -2.569273 0.288643 0.022636 0.083039
6.771868 90.489660 6.425531 -15.115535 1.654847 0.065422 -5.493892 1.635527 -0.327537 -2.311246 0.725313 -0.110895 -2.311246 0.725313 -0.110895 -1.733280 0.544413 -0.080428 -7.424200 25.936384 2.451901 -13.811621 12.548333 6.039665 5.461340 7.859061 9.996629 52.597865 -0.293138 75.598963 18.304688 3.145142 -8.939858 1.952738 -2.280180 -1.314668 -25.091479 8.495560 -15.996737 -13.575155 17.328594 -49.583275 -37.887827 -5.134730 -12.876489 -2.864153 10.836004 15.791942 -17.976217 -4.822543 0.945127 -4.609258 7.473542 -4.826597 -3.018218 -8.250751 4.864419 -0.329965 0.092106 -0.190254 -19.008230 -1.634316 5.987134 6.805369 10.960140 -4.244769 -6.379375 -9.619798 -2.562302 0.281779 0.020689 0.077631
6.777119 90.493520 6.382520 -15.102439 1.800946 0.050758 -5.489786 1.603736 -0.310058 -2.315553 0.712957 -0.107180 -2.315553 0.712957 -0.107180 -1.736517 0.535133 -0.077684 -7.424204 25.927860 2.461805 -13.814367 12.533877 6.058165 5.454882 7.903788 9.977474 52.572783 -0.306330 75.535921 18.365498 3.210312 -8.935766 2.022618 -2.301424 -1.314436 -25.102685 8.532053 -15.991938 -13.570492 17.269526 -49.592922 -37.846703 -5.094346 -12.888539 -2.875037 10.868236 15.837669 -18.004725 -4.976227 1.010638 -4.568779 7.459081 -4.823984 -3.071817 -8.191885 4.872115 -0.344627 0.072524 -0.192790 -19.013486 -1.784557 6.067590 6.735664 10.933488 -4.251821 -6.357743 -9.586810 -2.581515 0.308503 0.018283 0.089899
